<?xml version="1.0" standalone="no"?><!DOCTYPE svg PUBLIC "-//W3C//DTD SVG 1.1//EN" "http://www.w3.org/Graphics/SVG/1.1/DTD/svg11.dtd"><svg t="1484657792776" class="icon" style="" viewBox="0 0 1024 1024" version="1.1" xmlns="http://www.w3.org/2000/svg" p-id="2406" xmlns:xlink="http://www.w3.org/1999/xlink" width="64" height="64"><defs><style type="text/css"></style></defs><path d="M514.871909 99.602486c2.445702-3.063779 5.666046-4.445242 9.664104-4.142343 3.984754 0.317225 8.127098 0.459464 12.42703 0.459464 30.677697 10.441816 53.229319 23.787776 67.654866 40.040948 14.410198 16.266475 21.314445 40.35715 20.710694 72.256674-2.461051 6.14086-3.381004 12.283768-2.761903 18.408255 0.603751 6.141884 2.761903 12.283768 6.443759 18.410302 2.444679 8.600889 5.207605 13.96506 8.284687 16.10684 3.062755 2.158153 8.887414 1.079588 17.488303-3.219321 13.491269-5.522784 26.074865-9.348925 37.740556-11.507078 11.649318-2.142803 24.852014-2.604314 39.579437-1.38044 16.569374 6.139837 26.693965 14.425547 30.376844 24.850991 3.681856 10.441816-2.761903 21.791305-19.330254 34.057677-12.282744 8.600889-24.249287 15.805988-35.897581 21.632693-11.665691 5.838985-24.25031 12.742209-37.740556 20.709671-5.522784 1.840928-11.362792 2.920516-17.489326 3.221368-6.141884 0.316202-11.966543 2.920516-17.489326 7.824199-2.459005 6.136767-4.14132 12.579503-5.061272 19.330254-0.920976 6.759961-1.697665 13.807471-2.301416 21.170159-0.6191 3.682879 0.144286 6.443759 2.301416 8.28571 2.142803 1.840928 5.061272 2.156106 8.743128 0.919952 13.491269-3.681856 26.995841-8.284687 40.500413-13.807471 13.491269-5.522784 27.614941-10.125615 42.342364-13.807471 24.537859-6.749728 47.864124-10.43056 69.955258-11.044544 22.092158-0.604774 46.02422-0.604774 71.798233 0 2.443655 0 6.124488 0.776689 11.044544 2.301416 4.904707 1.532913 8.587586 5.061272 11.045567 10.585079 0.604774 5.52176-2.157129 11.045567-8.284687 16.567327-6.14086 5.523807-11.965519 9.205663-17.488303 11.04659-23.329335 3.078105-44.341904 5.837962-63.053058 8.283664-18.724457 2.454912-40.039925 8.897647-63.97301 19.331277-23.328311 9.204639-45.562708 17.028838-66.73389 23.471574-21.171182 6.443759-43.722804 15.187911-67.654866 26.234501-6.14086 11.659551-10.124592 23.328311-11.965519 34.978652-1.840928 11.658528-3.998057 23.932062-6.443759 36.817534 0 4.920056 1.221828 8.139378 3.682879 9.664104 2.445702 1.534959 6.127558 1.995447 11.045567 1.381463 14.109346-4.9088 27.613918-10.124592 40.500413-15.648398 12.887518-5.52176 26.995841-10.728342 42.341341-15.648398 11.650341-4.9088 17.791202-11.045567 18.410302-18.408255 0.603751-7.363711 2.444679-15.954367 5.52176-25.774013 1.841951-6.125511 3.063779-10.585079 3.681856-13.346983 0.604774-2.76088 1.841951-7.506974 3.682879-14.265912 15.33015-11.650341 30.978549-15.793708 46.943149-12.42703 15.950274 3.374864 27.298739 16.107863 34.0587 38.198997 4.285606 10.441816 7.046486 18.102287 8.28264 23.01211 1.223874 4.919033-1.538029 13.201673-8.28264 24.852014-22.092158 24.546046-40.817638 49.101301-56.148811 73.637114-15.346523 24.546046-29.772071 50.319036-43.263339 77.319993l-60.749596 69.956282c-10.441816 6.759961-18.869766 12.886495-25.313525 18.409279s-12.124132 14.124695-17.028838 25.774013c-15.3455 13.490246-30.073946 24.536836-44.182268 33.136701-14.124695 8.591679-29.454846 15.331173-46.02422 20.250206-18.409279 9.809413-34.834366 18.408255-49.245587 25.77299-14.426571 7.363711-34.834366 14.114462-61.211107 20.25123-11.044544 4.9088-23.788799 9.347902-38.20002 13.346983-14.425547 3.987824-30.53341 7.507998-48.323589 10.586103-10.441816-1.841951-20.567431-3.078105-30.375821-3.682879-9.82374-0.613984-20.567431-0.613984-32.216749 0-11.663644-1.840928-16.884552-6.758937-15.647375-14.7264 1.221828-7.979742 6.441713-15.966647 15.647375-23.934109 14.109346-9.205663 27.456329-15.503089 40.040948-18.869766 12.56927-3.374864 26.232454-6.9022 40.960901-10.585079 31.295773-13.499455 61.052494-27.470655 89.285512-41.880853 28.217668-14.421454 58.592466-29.915333 91.12644-46.484707 7.363711-3.681856 14.267958-8.130168 20.709671-13.345959 6.443759-5.207605 11.190877-11.190877 14.267958-17.950837-6.141884-11.649318-12.58462-24.239054-19.331277-37.739533-6.758937-13.490246-16.265452-23.011086-28.534893-28.53387-14.123672 1.236154-28.231995 5.983271-42.340317 14.266935-14.123672 8.283664-28.851095 16.424064-44.183292 24.393573-6.758937 2.451842-13.504572 5.377474-20.250206 8.743128-6.759961 3.374864-12.887518 9.060353-18.410302 17.029862-8.599865 7.363711-16.266475 11.822257-23.011086 13.345959-6.759961 1.534959-14.425547 0.153496-23.011086-4.142343-14.727423-15.954367-21.789259-29.137621-21.171182-39.579437 0.604774-10.432607 5.206582-23.61586 13.807471-39.581484 1.840928-12.886495 7.205099-24.240077 16.107863-34.056654 8.889461-9.809413 20.092617-13.807471 33.598212-11.965519 14.109346-4.285606 26.994818-7.210215 38.659485-8.745175 11.649318-1.524726 25.155936 0.153496 40.500413 5.062296 12.268418 3.682879 26.837228 3.220345 43.722804-1.38044 16.870226-4.602831 31.137161-10.893094 42.800805-18.869766 4.904707-11.045567 7.824199-22.695908 8.744151-34.977629 0.919952-12.273535 2.90619-25.160029 5.984295-38.659485 0-6.127558-1.696642-9.348925-5.063319-9.665127-3.378957-0.306992-7.824199 0.459464-13.345959 2.301416-41.11849 18.408255-80.69895 33.452903-118.740358 45.103244-38.055734 11.658528-78.239945 24.24724-120.581286 37.739533-7.363711 3.078105-13.96506 6.29845-19.789719 9.664104-5.838985 3.374864-12.743232 6.9022-20.710694 10.585079l-60.751642 12.887518c-16.568351-0.603751-28.231995-6.751774-34.977629-18.409279-6.759961-11.649318-4.919033-23.933085 5.522784-36.818557 3.680832-3.682879 6.284123-6.904247 7.823176-9.664104 1.524726-2.761903 3.221368-5.666046 5.063319-8.744151 1.840928-6.127558 4.602831-12.888542 8.283664-20.25123 3.681856-7.362688 8.284687-11.045567 13.807471-11.045567 6.744611 0.61296 11.18883 0.61296 13.346983 0 2.142803-0.603751 6.904247-2.445702 14.266935-5.522784 19.632129 6.135744 38.198997 8.283664 55.688323 6.443759 17.489326-1.840928 36.358069-6.443759 56.609299-13.807471 14.727423-4.909823 24.996301-13.807471 30.836309-26.692942 5.823636-12.887518 8.426927-25.457812 7.824199-37.739533l-1.840928-57.069787c-3.077082-12.272511-6.29845-19.636223-9.665127-22.091134-3.37998-2.444679-2.617617-11.04659 2.301416-25.775037-2.459005-11.648294-2.761903-19.932981-0.919952-24.850991 1.840928-4.904707 8.888438-8.889461 21.170159-11.966543 14.727423-7.968485 30.05962-10.268878 46.023196-6.904247 15.950274 3.381004 24.537859 14.887059 25.775037 34.518165 1.221828 22.705118 1.523703 44.182268 0.918929 64.432475-0.618077 20.25123-0.317225 41.738613 0.920976 64.433498 0 6.136767 1.984191 9.665127 5.983271 10.585079 3.984754 0.920976 8.127098 0.461511 12.42703-1.38044l38.659485-11.04659c3.683902-3.066849 5.364171-6.125511 5.062296-9.203616-0.316202-3.067872-1.379417-6.126534-3.220345-9.204639l-14.728446-53.386908c-6.758937-11.04659-11.361769-18.409279-13.806447-22.091134-2.461051-3.681856-1.539053-11.04659 2.761903-22.093181 0-4.90266 0.76134-8.888438 2.301416-11.964496 1.52268-3.063779 3.823072-6.443759 6.901177-10.126638 4.90573-24.536836 9.048073-48.467875 12.428054-71.795163 3.365654-23.313985 4.746094-47.248094 4.142343-71.797209 1.841951-11.045567 3.681856-20.85498 5.522784-29.455869 1.840928-8.586562 1.840928-19.012006 0-31.295773-0.6191-2.444679-0.6191-5.364171 0-8.745175C511.793804 105.901958 513.030981 102.680591 514.871909 99.602486zM640.055003 605.859691l-42.341341 12.888542c-21.487384 8.599865-32.532951 20.10592-33.137725 34.516118-0.618077 14.421454 0.604774 30.529317 3.682879 48.325635 1.222851 3.078105 2.905166 4.142343 5.062296 3.221368 2.14485-0.920976 4.747117-2.608407 7.824199-5.062296 9.80839-12.272511 25.154913-30.835286 46.02422-55.689347C648.023488 619.207697 652.323421 606.475721 640.055003 605.859691z" p-id="2407" fill="#222222"></path></svg>