<?xml version="1.0" standalone="no"?><!DOCTYPE svg PUBLIC "-//W3C//DTD SVG 1.1//EN" "http://www.w3.org/Graphics/SVG/1.1/DTD/svg11.dtd"><svg t="1484725602496" class="icon" style="" viewBox="0 0 1024 1024" version="1.1" xmlns="http://www.w3.org/2000/svg" p-id="1294" xmlns:xlink="http://www.w3.org/1999/xlink" width="64" height="64"><defs><style type="text/css"></style></defs><path d="M955.002556 790.966573c1.836835-5.389754 3.056616-11.0558 3.056616-17.036002L958.059172 278.446733c0-5.678326-1.13587-11.0558-2.797719-16.202007L664.164608 511.484254 955.002556 790.966573z" p-id="1295" fill="#222222"></path><path d="M511.840364 571.592236l76.673264-62.379723 38.800701-31.57002 292.323788-250.218832c-4.802376-1.426489-9.779737-2.428306-15.023158-2.428306L119.108748 224.995357c-5.256724 0-10.246365 1.001817-15.053857 2.439562l292.493657 250.351861 38.812981 31.582299L511.840364 571.592236z" p-id="1296" fill="#222222"></path><path d="M904.614959 827.380924c5.025457 0 9.80532-0.930185 14.425547-2.24718L625.362884 543.043017l-113.52252 92.378967-113.341395-92.234681L104.700597 825.146023c4.615111 1.303692 9.387811 2.233877 14.408151 2.233877L904.614959 827.3799z" p-id="1297" fill="#222222"></path><path d="M68.461231 262.244726c-1.661849 5.14723-2.797719 10.523681-2.797719 16.202007L65.663512 773.929548c0 5.992481 1.220804 11.658528 3.056616 17.036002l290.972001-279.360546L68.461231 262.244726z" p-id="1298" fill="#222222"></path></svg>