<?xml version="1.0" standalone="no"?><!DOCTYPE svg PUBLIC "-//W3C//DTD SVG 1.1//EN" "http://www.w3.org/Graphics/SVG/1.1/DTD/svg11.dtd"><svg t="1484725583964" class="icon" style="" viewBox="0 0 1024 1024" version="1.1" xmlns="http://www.w3.org/2000/svg" p-id="854" xmlns:xlink="http://www.w3.org/1999/xlink" width="64" height="64"><defs><style type="text/css"></style></defs><path d="M505.6 57.6c121.6-12.8 300.8 76.8 307.2 294.4 0 0 51.2 38.4 32 121.6 0 0 115.2 134.4 70.4 262.4-6.4 32-32 38.4-76.8-51.2-12.8 32-51.2 102.4-64 115.2 0 0 51.2 0 57.6 51.2 19.2 25.6 12.8 51.2 6.4 51.2-12.8 32-153.6 115.2-300.8 12.8L492.8 915.2c0 0-108.8 89.6-256 32-76.8-32-51.2-83.2-44.8-89.6-6.4-19.2 12.8-44.8 57.6-57.6 0 0-44.8-44.8-64-108.8 0 0-38.4 70.4-70.4 64-32-6.4-25.6-192 76.8-275.2 0 0-25.6-44.8 0-70.4 0 0-6.4-32 25.6-51.2C224 358.4 224 70.4 505.6 57.6z" p-id="855" fill="#222222"></path></svg>