<?xml version="1.0" standalone="no"?><!DOCTYPE svg PUBLIC "-//W3C//DTD SVG 1.1//EN" "http://www.w3.org/Graphics/SVG/1.1/DTD/svg11.dtd"><svg t="1484725616571" class="icon" style="" viewBox="0 0 1026 1024" version="1.1" xmlns="http://www.w3.org/2000/svg" p-id="1517" xmlns:xlink="http://www.w3.org/1999/xlink" width="64.125" height="64"><defs><style type="text/css"></style></defs><path d="M759.633 494.124c-39.904-7.744-20.512-29.216-20.512-29.216s39.04-64.352-7.712-111.136c-57.952-57.92-198.784 7.392-198.784 7.392-53.792 16.672-39.552-7.616-31.936-48.992 0-48.736-16.704-131.232-160-82.496-143.136 48.992-266.048 220.608-266.048 220.608-85.472 114.048-74.144 202.208-74.144 202.208 21.344 194.592 228.128 248.032 388.928 260.672 169.216 13.28 397.568-58.304 466.816-205.408 69.248-147.36-56.576-205.664-96.608-213.632zM401.969 858.284c-167.968 7.872-303.744-76.384-303.744-188.48 0-112.192 135.776-202.208 303.744-209.952 168.096-7.744 304.128 61.504 304.128 173.504 0 112.096-136.032 217.28-304.128 224.928zM368.465 533.772c-168.928 19.776-149.408 178.016-149.408 178.016s-1.728 50.112 45.28 75.616c98.848 53.536 200.64 21.12 252.064-45.28 51.456-66.4 21.248-228-147.936-208.352zM325.873 755.884c-31.552 3.712-56.96-14.496-56.96-40.896 0-26.272 22.592-53.792 54.144-57.056 36.256-3.456 59.808 17.408 59.808 43.808-0.032 26.272-25.568 50.56-56.992 54.144zM425.457 671.02c-10.688 8-23.84 6.88-29.472-2.688-5.888-9.344-3.68-24.32 7.136-32.192 12.512-9.312 25.536-6.624 31.168 2.72 5.632 9.568 1.6 23.936-8.832 32.16zM841.905 425.612c13.632 0 25.184-10.08 27.136-23.2 0.256-0.992 0.352-1.856 0.352-2.944 20.64-185.504-152-153.568-152-153.568-15.328 0-27.616 12.416-27.616 27.872 0 15.232 12.288 27.616 27.616 27.616 124-27.392 96.64 96.608 96.64 96.608 0 15.328 12.48 27.616 27.872 27.616zM821.777 101.804c-59.68-13.984-121.056-1.92-138.272 1.376-1.344 0.128-2.592 1.376-3.808 1.632-0.608 0.128-0.96 0.736-0.96 0.736-16.96 4.8-29.344 20.512-29.344 39.04 0 22.08 17.92 40.256 40.256 40.256 0 0 21.728-2.912 36.448-8.672 14.624-5.888 138.24-4.384 199.648 98.752 33.504 75.264 14.72 125.632 12.384 133.728 0 0-7.968 19.552-7.968 38.816 0 22.24 17.92 36.192 40.128 36.192 18.56 0 34.144-2.528 38.72-33.92l0.256 0c65.92-219.776-80.672-323.008-187.488-347.936z" p-id="1518" fill="#222222"></path></svg>