<?xml version="1.0" standalone="no"?><!DOCTYPE svg PUBLIC "-//W3C//DTD SVG 1.1//EN" "http://www.w3.org/Graphics/SVG/1.1/DTD/svg11.dtd"><svg t="1484725593331" class="icon" style="" viewBox="0 0 1025 1024" version="1.1" xmlns="http://www.w3.org/2000/svg" p-id="1074" xmlns:xlink="http://www.w3.org/1999/xlink" width="64.0625" height="64"><defs><style type="text/css"></style></defs><path d="M296.512 131.606c-302.228 53.98-402.972 395.441-162.57 551.734 13.181 8.474 13.181 7.532-6.595 66.534l-16.947 50.527 121.772-65.277 32.328 7.844c33.892 8.476 77.204 14.438 106.076 14.438l17.262 0-5.965-22.912c-47.391-174.495 116.434-347.423 329.536-347.423l28.874 0-5.965-20.713c-46.764-163.51-244.165-269.274-437.806-234.752zM270.149 284.445c32.01 21.658 33.894 68.421 3.136 88.504-49.897 32.64-108.273-24.794-74.693-73.754 14.751-21.967 50.214-29.184 71.557-14.751zM527.501 284.445c52.726 35.466 13.181 117.379-45.824 94.779-42.68-16.32-47.703-75.005-7.846-96.033 15.693-8.471 40.172-7.844 53.67 1.254zM643.935 413.751c-149.701 27.305-253.586 140.915-247.621 271.473 7.846 174.812 212.787 295.324 409.562 241.344l23.222-6.277 48.963 26.365c26.99 14.751 49.587 25.421 50.212 24.161 0.632-1.567-4.705-20.401-11.61-42.053-15.69-48.333-16.008-44.882 5.023-59.945 236.634-169.789 28.874-510.618-277.75-455.068zM637.972 554.666c13.176 8.788 20.086 30.758 14.433 46.764-11.922 34.207-63.078 36.718-76.892 3.766-15.69-37.975 27.622-73.129 62.459-50.529zM847.619 558.432c20.713 19.771 17.262 53.353-6.904 65.905-37.033 18.826-75.95-18.826-56.804-54.922 12.549-23.224 44.874-28.872 63.708-10.982z" p-id="1075" fill="#222222"></path></svg>