<?xml version="1.0" standalone="no"?><!DOCTYPE svg PUBLIC "-//W3C//DTD SVG 1.1//EN" "http://www.w3.org/Graphics/SVG/1.1/DTD/svg11.dtd"><svg t="1484657784708" class="icon" style="" viewBox="0 0 1024 1024" version="1.1" xmlns="http://www.w3.org/2000/svg" p-id="2181" xmlns:xlink="http://www.w3.org/1999/xlink" width="64" height="64"><defs><style type="text/css"></style></defs><path d="M679.079808 436.144358c11.06501-4.980431 22.275329-6.354731 33.624818-4.148483 11.338233 2.214435 22.275329 3.603061 32.793894 4.148483l61.440327 23.249517c15.491833 12.736069 21.587668 24.778336 18.268062 36.117592-3.321652 11.348466-13.84431 19.796882-31.550577 25.322735-9.419534 1.658779-17.993816 2.63399-25.738198 2.90619-7.756661 0.282433-15.775288 0.413416-24.077372 0.413416-11.078313 2.220574-21.171182 4.567016-30.303166 7.059789-9.134031 2.488681-18.96698 4.0175-29.476335 4.561899-5.538133 0-10.377348-2.205225-14.527878-6.640234-4.151553-4.420683-9.275247-7.186679-15.359826-8.30106l-9.962909 3.319605c-57.017598 12.18246-111.254873 23.662933-162.731268 34.456766-51.477418 10.794857-106.274442 22.002107-164.392094 33.624818-23.246447 2.77623-45.948495-1.790786-68.079538-13.70207-22.145369-11.893888-38.749536-32.236192-49.816592-61.020772-3.321652-13.833053-0.14224-23.662933 9.547447-29.477358 9.679453-5.808286 20.342304-4.279467 31.963992 4.567016 4.424776 5.542226 8.849552 8.02886 13.284561 7.475252 4.424776-0.544399 8.847505-1.379417 13.282514-2.493797 43.174312-3.320629 84.129072-6.77224 122.880655-10.375302 38.737256-3.593851 80.249719-8.992815 124.537388-16.188704 27.115568-5.53097 53.268204-11.214413 78.460979-17.022699 25.180496-5.813403 51.605332-10.652618 79.289857-14.527878L679.079808 436.144358z" p-id="2182" fill="#222222"></path></svg>